C:\Users\u0150099\Documents\PredSim_dev\Subjects\test_1\MuscleAnalysis\dummy_motion.mot
version=1
nRows=11
nColumns=32
inDegrees=no
endheader
                time	         pelvis_tilt	         pelvis_list	     pelvis_rotation	           pelvis_tx	           pelvis_ty	           pelvis_tz	       hip_flexion_l	     hip_adduction_l	      hip_rotation_l	       hip_flexion_r	     hip_adduction_r	      hip_rotation_r	        knee_angle_l	        knee_angle_r	       ankle_angle_l	       ankle_angle_r	    subtalar_angle_l	    subtalar_angle_r	         mtp_angle_l	         mtp_angle_r	    lumbar_extension	      lumbar_bending	     lumbar_rotation	          arm_flex_l	           arm_add_l	           arm_rot_l	          arm_flex_r	           arm_add_r	           arm_rot_r	        elbow_flex_l	        elbow_flex_r	
         25.01000000	          0.00000000	          0.00000000	          0.00000000	          0.00000000	          0.00000000	          0.00000000	         -0.35026832	          0.02334238	          0.15939385	          0.30716913	         -0.49901913	          0.04001683	         -0.01298917	         -0.86242940	         -0.19197937	          0.18678076	         -0.45194879	          0.41720392	          0.05791478	          0.41590195	         -0.14882539	         -0.21521351	         -0.00033789	          0.48794375	          0.05503577	          0.02403345	          0.12250140	          0.32946804	          0.37292654	          0.16625765	         -0.29072932	
         25.02000000	          0.00000000	          0.00000000	          0.00000000	          0.00000000	          0.00000000	          0.00000000	          0.48287435	          0.31245110	          0.04406656	          0.78224096	         -0.02572802	          0.20964012	         -0.99250419	         -1.34403066	          0.51300266	         -0.25109635	         -0.26385630	         -0.14376267	          0.87230704	         -0.20633065	         -0.09609666	         -0.04917428	         -0.09153994	          0.14501779	         -0.23817182	          0.11952046	          0.17909945	         -0.22974406	          0.22621972	         -0.39159923	         -0.06207344	
         25.03000000	          0.00000000	          0.00000000	          0.00000000	          0.00000000	          0.00000000	          0.00000000	         -0.43583193	         -0.25649421	         -0.18008522	         -0.07113163	         -0.17524986	         -0.16123241	         -1.51322411	         -0.79836199	          0.23287963	          0.10243777	         -0.19223116	          0.51207215	         -0.34581352	          0.35021814	         -0.32274046	          0.04405521	          0.20081680	          0.29735457	          0.38153204	         -0.42440816	          0.44299486	          0.18817883	         -0.04422396	         -0.31985305	          0.39692667	
         25.04000000	          0.00000000	          0.00000000	          0.00000000	          0.00000000	          0.00000000	          0.00000000	         -0.71299816	         -0.19028699	          0.31998253	          0.07815231	          0.38152183	          0.49384008	         -0.50422156	         -1.22250021	         -0.02542129	         -0.45329835	         -0.02744471	          0.14268013	         -0.03444284	          0.22248483	         -0.51102510	         -0.27663109	         -0.40190503	          0.19254762	         -0.10242765	          0.22271660	          0.47096806	         -0.13832906	         -0.09212227	          0.04231835	         -0.38791563	
         25.05000000	          0.00000000	          0.00000000	          0.00000000	          0.00000000	          0.00000000	          0.00000000	         -0.53430073	          0.43441896	          0.51473256	         -0.34823194	          0.27281446	         -0.16618071	         -0.31704219	         -0.92081307	          0.52199359	         -0.09695300	         -0.22870167	          0.05034611	          0.33304004	          0.27431628	          0.41977896	          0.29107180	          0.37438238	          0.49496071	          0.46071215	         -0.07781093	         -0.02285096	          0.12450177	          0.29443196	          0.18603136	          0.51925628	
         25.06000000	          0.00000000	          0.00000000	          0.00000000	          0.00000000	          0.00000000	          0.00000000	         -0.35551997	         -0.36444656	         -0.47139615	          0.52281923	          0.25529003	         -0.36199310	         -0.73970665	         -1.51074541	         -0.16828165	          0.29054269	         -0.27611014	         -0.41418242	          0.82814632	         -0.22771763	         -0.41256548	         -0.09119380	         -0.15596360	         -0.03396578	          0.15150216	          0.37578665	         -0.13353839	          0.39126379	         -0.31549903	          0.32982110	         -0.46330842	
         25.07000000	          0.00000000	          0.00000000	          0.00000000	          0.00000000	          0.00000000	          0.00000000	          0.28725613	         -0.48920333	         -0.28107124	         -0.46988062	          0.35424419	         -0.32124955	         -1.29135295	         -1.06573486	         -0.17579668	          0.31226670	         -0.11646879	          0.00330056	         -0.29173370	         -0.16598689	          0.12886537	         -0.08240471	          0.13337039	          0.32314992	          0.33491120	          0.49563982	          0.29764498	         -0.48000260	          0.49817132	          0.10194853	         -0.15294090	
         25.08000000	          0.00000000	          0.00000000	          0.00000000	          0.00000000	          0.00000000	          0.00000000	         -0.20899839	          0.51008784	         -0.22968554	          0.06673153	          0.25985280	          0.44510106	         -1.54205721	         -0.99242106	          0.10574324	          0.17936729	          0.27378769	          0.27351003	         -0.06136613	          0.07441642	          0.25107144	         -0.17625671	         -0.00404993	          0.10318785	          0.45880197	         -0.51206784	          0.16094008	          0.25598535	         -0.09639915	          0.49994107	         -0.30501694	
         25.09000000	          0.00000000	          0.00000000	          0.00000000	          0.00000000	          0.00000000	          0.00000000	          0.22397938	          0.37486020	          0.16694485	         -0.44453313	          0.37869085	          0.47624564	         -0.63453432	         -1.55012878	         -0.30858629	          0.19892419	          0.22095893	         -0.03475159	          0.30508746	         -0.32691577	         -0.25299185	         -0.45578320	          0.36643772	         -0.11524235	         -0.43163910	         -0.29480619	          0.15493313	          0.37792893	         -0.09618280	          0.49134164	         -0.48805640	
         25.10000000	          0.00000000	          0.00000000	          0.00000000	          0.00000000	          0.00000000	          0.00000000	         -0.17095686	         -0.46882506	         -0.40652312	          0.68622721	          0.42008412	         -0.24672933	         -0.82661310	         -0.92353539	         -0.35198229	         -0.43118586	         -0.37396380	         -0.05598734	          0.01911900	          0.65400076	          0.31156470	         -0.18415126	         -0.04670251	         -0.34092812	          0.33097487	         -0.15752736	         -0.30563795	          0.12596441	         -0.33260181	         -0.39045796	          0.42873152	
         25.11000000	          0.00000000	          0.00000000	          0.00000000	          0.00000000	          0.00000000	          0.00000000	         -0.57639599	         -0.12856133	         -0.44791669	         -0.50719251	         -0.31170650	         -0.41799771	         -0.58225391	         -1.51579739	          0.37269861	          0.37640679	          0.37729672	         -0.51355620	          0.34963303	          0.03539795	          0.31711058	          0.23115870	         -0.07759491	          0.50259109	          0.14637710	         -0.17061630	         -0.23055811	         -0.06800242	          0.11711182	         -0.35340273	         -0.33057611	
